<?xml version="1.0" encoding="UTF-8" standalone="no"?>
<!-- Created with Inkscape (http://www.inkscape.org/) -->

<svg
   xmlns:dc="http://purl.org/dc/elements/1.1/"
   xmlns:cc="http://creativecommons.org/ns#"
   xmlns:rdf="http://www.w3.org/1999/02/22-rdf-syntax-ns#"
   xmlns:svg="http://www.w3.org/2000/svg"
   xmlns="http://www.w3.org/2000/svg"
   xmlns:sodipodi="http://sodipodi.sourceforge.net/DTD/sodipodi-0.dtd"
   xmlns:inkscape="http://www.inkscape.org/namespaces/inkscape"
   width="35px"
   height="27px"
   viewBox="0 0 159.3728 117.45585"
   id="svg2"
   version="1.1"
   inkscape:version="0.91 r13725"
   sodipodi:docname="rounds.svg">
  <defs
     id="defs4" />
  <sodipodi:namedview
     id="base"
     pagecolor="#F86C6C"
     bordercolor="#666666"
     borderopacity="1.0"
     inkscape:pageopacity="0.0"
     inkscape:pageshadow="2"
     inkscape:zoom="0.98994949"
     inkscape:cx="58.100349"
     inkscape:cy="186.00886"
     inkscape:document-units="px"
     inkscape:current-layer="layer1"
     showgrid="false"
     fit-margin-top="0"
     fit-margin-left="0"
     fit-margin-right="0"
     fit-margin-bottom="0"
     inkscape:window-width="1366"
     inkscape:window-height="705"
     inkscape:window-x="-8"
     inkscape:window-y="-8"
     inkscape:window-maximized="1" />
  <metadata
     id="metadata7">
    <rdf:RDF>
      <cc:Work
         rdf:about="">
        <dc:format>image/svg+xml</dc:format>
        <dc:type
           rdf:resource="http://purl.org/dc/dcmitype/StillImage" />
        <dc:title></dc:title>
      </cc:Work>
    </rdf:RDF>
  </metadata>
  <g
     inkscape:label="Layer 1"
     inkscape:groupmode="layer"
     id="layer1"
     transform="translate(-290.02944,-628.46414)">
    <path
       style="fill:#F86C6C"
       d="m 134.98028,724.2 c -1.53318,-0.31711 -3.9238,-2.02101 -5.3125,-3.78646 -2.32995,-2.96205 -2.52491,-5.02533 -2.52491,-26.72162 0,-23.05209 0.059,-23.58028 3.01677,-27.01892 l 3.01677,-3.50721 33.96646,0 33.96646,0 3.01677,3.50721 c 2.95876,3.43976 3.01677,3.96118 3.01677,27.11779 0,23.15182 -0.0586,23.67874 -3.01484,27.1178 l -3.01485,3.5072 -31.67265,0.18038 c -17.41996,0.0992 -32.92708,-0.0791 -34.46025,-0.39617 z m 64.56354,-6.34671 c 2.58244,-2.1095 2.66537,-2.98846 2.32598,-24.65186 l -0.35193,-22.46436 -3.125,-1.57971 c -2.2424,-1.13355 -11.0684,-1.57972 -31.25,-1.57972 -20.1816,0 -29.0076,0.44617 -31.25,1.57972 l -3.125,1.57971 -0.35194,22.46436 c -0.33938,21.6634 -0.25645,22.54236 2.32598,24.65186 2.38341,1.94692 5.94679,2.1875 32.40096,2.1875 26.45417,0 30.01755,-0.24058 32.40095,-2.1875 z m -62.40095,-4.53609 c 0,-0.94797 3.9375,-5.43803 8.75,-9.9779 4.8125,-4.53986 8.75,-9.0261 8.75,-9.96942 0,-0.94331 -3.9375,-5.21455 -8.75,-9.49165 -8.45716,-7.51628 -10.77538,-11.33744 -6.87818,-11.33744 1.0295,0 7.43912,5.0625 14.24358,11.25 6.80447,6.1875 13.03149,11.25 13.83783,11.25 0.80634,0 7.10636,-5.0625 14.00005,-11.25 6.89369,-6.1875 13.32435,-11.25 14.29035,-11.25 3.78209,0 1.37816,3.89703 -6.99363,11.33744 -4.8125,4.2771 -8.75,8.41286 -8.75,9.19058 0,0.77771 3.9375,5.32136 8.75,10.09698 8.45588,8.39108 10.54162,11.875 7.10929,11.875 -0.9024,0 -5.97503,-3.99379 -11.27251,-8.8751 -5.39854,-4.97442 -10.30863,-8.54892 -11.17179,-8.13295 -0.84699,0.40817 -2.51088,1.43746 -3.69753,2.2873 -1.75894,1.2597 -2.8548,1.13328 -5.93169,-0.68428 l -3.77414,-2.22944 -9.31559,8.81724 c -8.95451,8.47546 -13.19604,10.75553 -13.19604,7.09364 z"
       id="path3368"
       inkscape:connector-curvature="0" />
    <path
       style="fill:#F86C6C"
       d="m 83.821456,729.67225 c -3.67999,-5.87605 -16.85502,-29.32656 -19.83937,-35.3125 -6.75007,-13.53913 -5.21293,-25.13351 4.52173,-34.1066 11.14875,-10.27657 25.39403,-10.27657 36.542784,0 6.4649,5.95913 9.96097,15.44747 8.61883,23.39152 -0.74415,4.40456 -15.368544,32.92526 -22.639854,44.15258 -3.51443,5.42646 -4.77455,5.75443 -7.20412,1.875 z m 14.18739,-23.55748 c 11.971644,-21.70825 13.332734,-27.17919 8.915754,-35.83718 -1.44447,-2.83141 -4.69709,-6.72747 -7.228054,-8.65793 -3.97784,-3.03404 -5.72968,-3.50991 -12.92134,-3.50991 -7.19166,0 -8.9435,0.47587 -12.92134,3.50991 -2.53096,1.93046 -5.72154,5.70492 -7.0902,8.38771 -3.62528,7.10614 -3.17911,13.33807 1.62087,22.63939 6.92945,13.42778 17.72485,32.29402 18.49179,32.31661 0.39937,0.0118 5.409,-8.47011 11.13252,-18.8486 z m -20.14264,-13.23466 c -12.62315,-7.8342 -8.63038,-28.82568 5.784,-30.40869 6.99881,-0.76862 9.83885,0.18306 14.52206,4.86627 4.401304,4.4013 4.852944,5.46197 4.852944,11.39706 0,5.93509 -0.45164,6.99576 -4.852944,11.39706 -4.32424,4.32424 -5.51582,4.84932 -10.9375,4.81968 -3.39369,-0.0186 -7.53689,-0.93461 -9.36856,-2.07138 z m 13.36913,-3.47537 c 6.01567,-2.51351 8.796604,-8.93991 6.37527,-14.73249 -2.36122,-5.64879 -5.34763,-7.75568 -10.99329,-7.75568 -6.76001,0 -11.66029,4.93702 -11.66029,11.74771 0,5.45489 3.89541,10.79814 8.53602,11.70866 1.46144,0.28674 2.81585,0.59796 3.00981,0.69158 0.19395,0.0936 2.32357,-0.65328 4.73248,-1.65978 z"
       id="path3381"
       inkscape:connector-curvature="0" />
    <path
       style="fill:#F86C6C"
       d="m 228.07838,734.38786 c -0.33876,-0.88278 -0.46685,-18.75549 -0.28465,-39.71714 l 0.33128,-38.11208 21.875,0 21.875,0 0,39.375 0,39.375 -21.59036,0.34214 c -16.67575,0.26425 -21.73056,-0.0232 -22.20627,-1.26292 z m 24.37619,-2.77446 c 1.89055,-2.27798 0.6624,-4.42976 -2.52833,-4.42976 -1.51938,0 -2.42623,0.85656 -2.42623,2.29167 0,4.09316 2.45333,5.15187 4.95456,2.13809 z m 15.67044,-36.92976 0,-28.125 -18.125,0 -18.125,0 -0.33818,26.84409 c -0.186,14.76425 -0.0571,27.57664 0.2865,28.47198 0.48159,1.255 4.71084,1.54841 18.46318,1.28091 l 17.8385,-0.34698 0,-28.125 z m -16.18269,-32.60892 c 1.28815,-2.08427 -1.60901,-4.47438 -3.33339,-2.75 -1.44241,1.44241 -0.53966,4.10892 1.39108,4.10892 0.60635,0 1.48039,-0.61151 1.94231,-1.35892 z"
       id="path3394"
       inkscape:connector-curvature="0" />
    <g
       transform="translate(117.69259,228.82166)"
       id="layer1-1"
       inkscape:label="Layer 1">
      <path
         inkscape:connector-curvature="0"
         id="path3372"
         d="m 205.78304,515.06107 c -23.20064,-8.35749 -36.76193,-30.82188 -32.7456,-54.24334 0.83014,-4.84098 2.68344,-11.10321 4.11845,-13.91606 3.1785,-6.23036 12.88485,-16.81113 17.71153,-19.30711 3.40133,-1.75889 3.70483,-1.66287 7.85185,2.48415 2.37257,2.37258 4.2794,4.79189 4.23739,5.37627 -0.042,0.58438 -2.40819,2.75548 -5.25819,4.82467 -12.0945,8.78102 -17.46417,21.50638 -14.69783,34.83176 1.88346,9.07259 7.49682,17.52084 14.6599,22.06353 10.39674,6.59342 19.05542,7.7613 30.39355,4.0995 l 6.55814,-2.11805 3.58541,4.01277 c 1.97197,2.20702 3.5854,4.86763 3.5854,5.91246 0,6.05258 -28.1255,10.25696 -40,5.97945 z m 61.97335,-0.54775 c -18.457,-6.34734 -30.99619,-22.14933 -32.78612,-41.31734 -0.7967,-8.53167 1.10767,-20.5195 3.857,-24.27943 1.45947,-1.99594 1.96559,-2.07203 3.77792,-0.56793 4.31571,3.58172 6.21736,9.25039 6.37099,18.99138 0.24401,15.47133 6.33897,25.52752 19.78627,32.64575 3.96506,2.09888 7.29646,2.72378 14.52059,2.72378 7.22413,0 10.55553,-0.6249 14.52059,-2.72378 13.1132,-6.94137 19.77917,-17.60602 19.69352,-31.50696 -0.0611,-9.91448 -2.31615,-15.58312 -9.14747,-22.99424 -9.43469,-10.23542 -24.8923,-13.91031 -37.40288,-8.89216 l -5.46125,2.19057 -4.17616,-4.88274 c -2.2969,-2.68551 -4.01634,-5.44524 -3.821,-6.13274 0.19534,-0.6875 3.68843,-2.62965 7.76241,-4.31588 10.12703,-4.19162 25.31621,-4.21038 36.15724,-0.0447 10.43934,4.01137 22.8948,16.4547 26.71021,26.6842 5.22971,14.0214 4.74105,27.83515 -1.42125,40.17635 -10.79331,21.61567 -36.19913,32.06662 -58.94061,24.24583 z m -7.24399,-27.05834 c -3.94906,-4.52729 -5.20027,-8.70969 -5.32879,-17.8125 -0.19866,-14.07123 -3.51087,-20.08755 -17.36305,-31.53838 l -3.58748,-2.96557 4.43449,-4.70192 c 4.30454,-4.56414 4.53901,-4.64787 8.00182,-2.85718 5.64491,2.91909 15.23223,13.98689 18.87568,21.79047 2.89485,6.2002 3.33174,8.72156 3.29614,19.02258 -0.0285,8.25581 -0.67185,13.30363 -2.11082,16.5625 -2.31229,5.23672 -3.43653,5.68873 -6.21799,2.5 z m -52.37719,-58.51424 c -13.08893,-13.37692 -13.97709,-14.91819 -11.46532,-19.89644 4.61563,-9.14807 5.26991,-9.40182 24.24176,-9.40182 18.99663,0 19.19431,0.0722 23.54448,8.59924 1.88611,3.69709 2.06024,5.10779 0.89637,7.26209 -2.64807,4.90155 -22.14186,24.13867 -24.46075,24.13867 -1.25685,0 -6.9973,-4.81579 -12.75654,-10.70174 z"
         style="fill:#F86C6C" />
    </g>
    <path
       id="path3434"
       d="m 554.57375,637.76826 c -32.03948,0 -58.0101,25.97425 -58.0101,58.0101 0,32.03585 25.97062,58.0101 58.0101,58.0101 32.03585,0 58.0101,-25.97425 58.0101,-58.0101 0,-32.03585 -25.97425,-58.0101 -58.0101,-58.0101 z m 0,101.51768 c -23.99148,0 -43.50758,-19.5161 -43.50758,-43.50758 0,-23.99148 19.5161,-43.50758 43.50758,-43.50758 23.99148,0 43.50758,19.5161 43.50758,43.50758 0,23.99148 -19.5161,43.50758 -43.50758,43.50758 z m 36.25631,-43.50758 c 0,4.00814 -3.24335,7.25126 -7.25126,7.25126 l -29.00505,0 c -4.00451,0 -7.25126,-3.24335 -7.25126,-7.25126 l 0,-29.00505 c 0,-4.00814 3.24675,-7.25126 7.25126,-7.25126 4.00451,0 7.25126,3.24335 7.25126,7.25126 l 0,21.75379 21.75379,0 c 4.00814,0 7.25126,3.24335 7.25126,7.25126 z"
       inkscape:connector-curvature="0" />
  </g>
</svg>
